P3
#unb
97 48
255
116 180 241 64 126 185 51 107 168 79 131 189 88 133 190 76 117 171 80 115 169 
91 124 177 84 117 168 82 118 168 79 119 170 75 121 170 71 121 172 67 123 172 
63 123 173 63 123 175 65 122 177 66 121 178 66 121 178 66 121 178 68 120 178 
68 120 178 69 119 178 69 119 178 73 122 181 73 122 181 75 121 181 75 121 181 
76 120 181 76 120 181 76 120 181 75 121 181 73 121 183 73 122 181 75 121 181 
76 121 180 79 119 180 78 119 181 76 120 183 73 121 187 80 129 196 74 125 191 
81 129 191 79 124 179 77 113 161 68 97 137 107 130 162 212 230 252 241 255 255 
197 216 231 105 130 171 74 106 167 79 121 193 72 122 193 69 128 188 63 125 174 
68 127 171 68 127 171 71 123 180 71 122 185 71 121 190 69 122 188 68 124 183 
68 125 180 71 123 183 72 122 183 72 122 183 72 122 183 72 122 181 72 122 181 
72 122 181 72 122 181 70 121 178 70 121 178 70 121 178 70 121 178 70 121 176 
70 121 176 70 121 176 70 121 176 74 125 182 75 124 182 80 122 180 82 121 178 
88 118 178 91 117 176 94 116 176 94 116 176 92 113 176 83 111 174 68 103 167 
90 134 199 67 121 185 59 120 185 59 127 192 54 122 187 110 169 235 49 103 163 
4 59 116 0 39 98 2 51 109 4 49 104 0 43 96 8 48 100 14 54 106 8 48 99 7 49 99 
5 48 99 3 49 101 0 50 103 0 50 102 0 50 104 0 50 104 0 50 106 0 50 107 
0 50 107 0 50 107 0 49 107 0 49 107 0 48 107 0 48 107 0 47 106 0 47 106 
0 46 106 0 46 106 1 45 106 1 45 106 1 45 106 0 46 106 0 46 108 0 47 106 
0 46 106 1 46 105 3 45 105 3 44 106 1 45 108 0 46 112 0 39 106 0 38 104 
0 48 109 5 50 105 12 48 96 13 42 82 61 84 116 171 189 211 223 241 251 
162 181 196 56 81 122 11 43 104 6 48 120 0 46 117 0 51 111 0 48 97 0 52 96 
0 52 96 0 48 105 0 47 110 0 46 115 0 47 113 0 49 108 0 50 105 0 48 108 
0 47 108 0 47 108 0 47 108 0 47 106 0 47 106 0 47 106 0 47 106 0 50 107 
0 50 107 0 50 107 0 50 107 0 50 105 0 50 105 0 50 105 0 50 105 0 41 99 0 40 99 
0 40 97 0 38 97 1 37 95 4 36 95 5 35 95 5 35 95 14 44 104 13 47 108 3 43 105 
13 59 121 0 50 113 0 50 114 0 56 119 0 36 99 67 121 183 52 89 144 31 70 125 
18 59 113 8 51 104 0 44 96 4 51 103 9 59 110 1 51 102 6 57 110 6 57 110 
6 57 112 7 56 112 8 54 113 8 54 113 7 53 112 5 54 112 3 55 113 1 56 113 
1 56 113 1 56 113 3 55 113 3 55 113 4 54 113 4 54 113 5 54 113 5 54 113 
7 53 113 7 53 113 7 53 113 7 53 113 8 52 113 7 53 113 4 54 115 4 54 113 
7 53 113 8 53 112 10 52 112 8 52 113 7 53 115 4 53 119 0 49 115 0 45 111 
3 53 114 9 54 109 16 54 101 19 51 90 70 95 126 180 201 222 241 255 255 
173 192 207 59 84 125 9 41 102 4 46 118 0 48 119 0 58 118 0 59 108 0 59 103 
0 59 103 3 55 112 3 54 117 3 53 122 1 54 120 0 56 115 0 57 112 3 55 115 
4 54 115 4 54 115 4 54 115 4 54 113 4 54 113 4 54 113 4 54 113 5 56 113 
5 56 113 5 56 113 5 56 113 5 56 111 5 56 111 5 56 111 6 55 111 6 52 111 
7 52 111 7 52 111 7 52 111 7 52 109 7 52 109 6 53 109 6 53 109 11 58 114 
12 58 117 7 53 112 8 54 114 9 58 117 10 59 118 18 66 128 0 33 92 84 125 177 
93 115 165 38 64 113 10 40 90 19 55 105 21 65 114 14 64 113 9 65 116 2 62 114 
6 67 121 6 67 122 9 65 122 11 63 123 15 61 123 17 58 122 19 57 122 18 57 122 
11 61 120 8 63 120 8 63 120 8 63 120 10 62 120 10 62 120 11 61 120 11 61 120 
13 62 121 13 62 121 15 61 121 15 61 121 15 61 121 15 61 121 15 61 121 
15 61 121 12 62 123 11 63 121 13 62 121 15 61 120 16 61 120 16 60 121 
15 61 123 12 61 127 15 66 132 6 59 125 13 63 124 13 58 113 16 54 101 15 47 86 
64 89 120 174 195 216 241 255 255 175 194 209 61 86 127 15 47 108 16 58 130 
14 64 135 18 77 137 16 78 127 8 67 111 8 67 111 11 63 120 11 62 125 11 61 130 
9 62 128 8 64 123 8 65 120 11 63 123 12 62 123 12 62 123 12 62 123 12 62 121 
12 62 121 12 62 121 12 62 121 11 62 119 11 62 119 11 62 119 11 62 119 
11 62 117 11 62 117 11 62 117 12 61 117 22 67 126 22 67 126 21 67 126 
18 68 127 15 70 127 14 70 127 12 71 127 11 72 127 5 65 119 9 66 121 19 70 125 
21 68 124 27 70 125 14 53 108 27 62 118 0 30 81 90 119 161 173 182 223 
64 78 117 0 17 58 9 41 82 20 63 106 4 56 103 0 58 105 2 69 121 0 61 116 
0 60 117 0 58 119 0 55 119 6 51 118 10 49 118 16 46 116 13 48 116 3 51 113 
0 54 111 0 54 111 0 54 111 1 53 111 1 53 111 1 53 111 1 53 111 3 53 112 
3 53 112 4 53 112 4 53 112 4 53 112 4 53 112 4 53 112 4 53 112 2 54 114 
2 54 112 4 53 112 6 52 111 7 52 111 6 52 112 4 52 114 2 53 118 0 53 119 
0 47 113 1 51 112 2 49 103 4 45 91 6 40 78 56 83 113 166 188 209 235 253 255 
167 186 201 54 79 120 9 41 102 9 51 123 4 54 125 2 61 121 0 57 106 0 58 102 
0 58 102 2 54 111 2 53 116 2 52 121 0 53 119 0 55 114 0 56 111 2 54 114 
3 53 114 3 53 114 3 53 114 3 53 112 3 53 112 3 53 112 3 53 112 2 53 110 
2 53 110 2 53 110 2 53 110 2 53 108 2 53 108 2 53 108 3 52 108 7 52 111 
7 52 111 3 53 112 0 55 114 0 57 116 0 58 116 0 60 116 0 60 114 0 58 110 
0 61 114 15 71 122 19 65 115 12 48 98 0 23 71 34 56 103 41 60 100 148 167 197 
246 252 255 183 195 221 105 124 154 42 71 103 6 49 84 10 63 103 15 78 122 
1 68 120 3 72 129 3 71 132 7 68 133 11 66 133 16 63 133 21 59 130 25 57 130 
24 59 127 15 63 125 11 66 123 11 66 123 11 66 123 13 65 123 13 65 123 
13 65 123 13 65 123 12 62 121 12 62 121 12 62 121 13 62 121 13 62 121 
13 62 121 13 62 121 12 62 121 11 63 123 9 64 121 12 62 121 13 62 120 15 61 120 
15 61 121 13 61 123 11 62 127 11 64 130 5 60 125 14 66 126 17 64 118 19 60 106 
20 54 92 68 95 125 178 200 221 241 255 255 174 193 208 62 87 128 18 50 111 
20 62 134 13 63 134 7 66 126 0 58 107 8 67 111 8 67 111 11 63 120 11 62 125 
11 61 130 9 62 128 8 64 123 8 65 120 11 63 123 12 62 123 12 62 123 12 62 123 
12 62 121 12 62 121 12 62 121 12 62 121 13 64 121 13 64 121 13 64 121 
13 64 121 13 64 119 13 64 119 13 64 119 13 64 119 15 61 120 13 62 120 
11 63 123 6 65 123 2 66 127 0 68 127 0 69 127 0 70 125 8 78 130 9 71 120 
9 61 108 10 53 96 7 39 80 31 53 92 124 140 174 178 192 219 240 255 255 
234 249 255 238 255 255 205 231 244 120 153 172 40 81 109 19 67 103 11 68 111 
0 48 99 0 62 119 0 60 123 1 58 125 4 57 127 6 54 126 10 52 124 13 51 122 
12 52 121 6 54 116 4 56 114 4 56 114 4 56 114 4 56 114 4 56 114 4 56 114 
4 56 114 2 54 112 2 54 112 2 54 112 3 53 112 3 53 112 3 53 112 3 53 112 
2 54 112 0 54 114 0 55 112 3 53 112 4 53 111 6 52 111 4 53 112 3 53 114 
0 54 118 6 61 126 2 57 122 11 63 123 11 61 114 13 56 101 9 44 82 53 82 112 
162 184 205 240 255 255 169 188 203 55 80 121 12 44 105 16 58 130 14 64 135 
10 69 129 1 63 112 0 58 102 0 58 102 2 54 111 2 53 116 2 52 121 0 53 119 
0 55 114 0 56 111 0 54 114 2 54 114 2 54 114 2 54 114 2 54 112 2 54 112 
2 54 112 2 54 112 3 55 112 3 55 112 3 55 112 3 55 112 3 56 110 3 56 110 
3 56 110 3 56 110 8 60 117 6 61 117 5 61 120 2 63 120 1 63 124 0 63 124 
0 64 122 1 63 120 6 66 118 3 55 103 0 38 79 20 58 94 50 79 109 117 139 163 
201 218 238 237 255 255 234 255 255 213 247 233 204 240 230 222 255 255 
222 255 255 147 190 206 53 99 125 11 61 98 12 64 111 10 63 117 9 61 121 
9 60 125 9 60 126 9 58 127 9 58 125 10 57 125 9 59 122 8 58 119 7 59 117 
7 59 117 7 59 117 7 59 117 7 59 117 7 59 117 7 59 117 7 59 117 7 59 117 
7 59 117 7 59 117 7 59 117 7 59 117 8 58 117 7 59 117 4 60 119 4 60 117 
7 59 117 8 59 116 9 58 116 9 58 117 7 59 119 5 59 123 3 58 123 0 56 120 
10 64 124 15 65 118 17 60 105 14 49 87 57 86 116 163 188 208 240 255 255 
172 191 206 52 77 118 5 37 98 9 51 123 8 58 129 7 66 126 0 61 110 4 63 107 
4 63 107 7 59 116 7 58 121 7 57 126 5 58 124 4 60 119 4 61 116 5 59 119 
7 59 119 7 59 119 7 59 119 7 59 117 7 59 117 7 59 117 7 59 117 6 58 115 
6 58 115 6 58 115 6 58 115 6 59 113 6 59 113 6 59 113 4 59 113 5 65 119 
4 65 119 4 65 120 5 64 122 7 63 122 8 62 122 11 61 120 12 61 117 6 49 100 
11 52 96 18 54 90 87 121 146 149 180 198 215 244 252 231 255 255 198 227 223 
202 240 225 99 160 126 112 173 142 179 237 213 213 255 254 203 253 254 
178 224 239 107 148 178 37 76 117 7 47 96 4 45 101 8 53 112 19 67 129 
20 71 134 10 66 127 8 67 127 15 74 132 5 60 117 9 61 119 5 57 115 0 51 109 
5 57 115 16 68 126 13 65 123 2 54 112 4 59 116 4 59 116 4 59 116 4 59 116 
4 59 116 4 59 116 6 58 116 4 59 116 2 58 117 2 58 115 6 58 116 7 58 115 
7 58 115 8 58 117 7 59 119 4 59 123 1 59 123 0 55 119 6 62 121 10 61 114 
14 58 103 12 50 87 60 91 120 169 194 214 238 255 255 171 190 205 60 85 126 
14 46 107 13 55 127 7 57 128 4 63 123 0 59 108 3 62 106 3 62 106 6 58 115 
6 57 120 6 56 125 4 57 123 3 59 118 3 60 115 4 58 118 4 58 118 4 58 118 
4 58 118 4 59 116 4 59 116 4 59 116 4 59 116 4 59 115 4 59 115 4 59 115 
4 59 115 4 59 113 4 59 113 4 59 113 3 60 113 0 66 116 2 68 118 2 63 117 
3 58 114 15 61 120 27 67 126 26 58 115 16 43 96 1 28 75 46 72 109 118 145 172 
183 215 228 225 255 255 208 248 240 183 225 211 116 165 143 123 182 152 
76 165 111 52 136 87 90 168 128 143 212 183 187 245 231 215 255 255 
185 227 243 141 176 204 64 98 135 32 66 111 2 42 93 2 48 100 13 66 120 
11 71 125 0 65 117 0 58 112 0 55 112 10 62 120 12 64 122 6 58 116 4 56 114 
8 60 118 6 58 116 0 52 109 4 59 116 4 59 116 4 59 116 4 59 116 4 59 116 
3 59 116 4 59 116 3 59 116 0 59 117 0 59 115 4 59 116 6 58 115 7 58 115 
7 59 117 5 59 119 4 59 123 1 59 123 0 56 119 4 63 121 9 62 114 14 58 103 
12 50 87 60 91 120 169 194 214 238 255 255 171 190 205 60 85 126 14 46 107 
13 55 127 7 57 128 4 63 123 0 59 108 3 62 106 3 62 106 6 58 115 6 57 120 
6 56 125 4 57 123 3 59 118 1 61 115 4 58 118 4 58 118 4 58 118 4 58 118 
4 59 116 4 59 116 4 59 116 4 59 116 4 59 115 4 59 115 4 59 115 4 59 115 
4 59 113 4 59 113 4 59 113 1 61 113 9 75 125 0 55 103 0 48 98 10 60 111 
21 61 113 17 47 99 24 44 95 42 59 103 88 104 140 145 165 190 205 231 244 
219 255 255 199 245 234 147 201 178 110 171 140 40 110 73 84 162 120 
67 181 112 11 120 55 23 122 65 70 157 112 126 200 167 189 248 230 214 255 255 
218 255 255 168 203 223 104 138 166 30 68 104 0 43 85 3 56 98 10 71 115 
5 72 117 0 64 112 0 56 111 7 59 117 7 59 117 3 55 113 4 56 114 10 62 120 
9 64 121 5 60 117 4 59 116 3 59 116 3 59 116 3 59 116 3 59 116 1 60 116 
3 59 116 1 60 116 0 59 117 0 59 115 4 59 116 4 59 115 6 58 115 7 59 117 
5 59 119 2 60 123 0 60 123 0 56 119 4 63 121 7 63 114 12 59 103 11 51 87 
58 92 120 168 195 214 238 255 255 171 190 205 60 85 126 14 46 107 13 55 127 
7 57 128 4 63 123 0 59 108 3 62 106 3 62 106 6 58 115 6 57 120 6 56 125 
4 57 123 3 59 118 1 61 115 4 58 118 4 58 118 4 58 118 4 58 118 4 59 116 
4 59 116 4 59 116 4 59 116 4 59 115 4 59 115 4 59 115 4 59 115 4 59 113 
4 59 113 4 59 113 3 60 113 0 57 105 0 50 97 3 57 104 22 66 113 18 50 97 
14 37 81 55 70 109 110 123 155 176 191 212 228 248 255 233 255 255 201 248 232 
127 187 159 64 136 98 51 135 86 9 102 49 77 177 123 60 191 111 4 131 54 
10 125 56 32 136 75 51 139 89 97 171 134 156 216 191 205 255 243 226 255 255 
185 225 235 116 157 177 50 94 121 5 56 87 0 49 84 1 63 102 18 79 124 14 69 123 
8 60 118 0 51 109 0 49 107 3 55 113 10 62 120 9 64 121 6 61 118 3 59 116 
3 59 116 3 59 116 1 60 116 1 60 116 1 60 116 1 60 116 0 61 116 0 60 117 
0 60 115 3 59 116 4 59 115 6 58 115 5 60 117 4 60 119 2 60 123 0 60 123 
0 56 119 3 64 121 7 63 114 12 59 103 11 51 87 58 92 120 168 195 214 
238 255 255 171 190 205 60 85 126 14 46 107 13 55 127 7 57 128 4 63 123 
0 59 108 3 62 106 3 62 106 6 58 115 6 57 120 6 56 125 4 57 123 3 59 118 
1 61 115 3 59 118 4 58 118 4 58 118 4 58 118 4 59 116 4 59 116 4 59 116 
4 59 116 4 59 115 4 59 115 4 59 115 4 59 115 4 59 113 4 59 113 4 59 113 
4 60 111 4 62 110 13 67 113 15 62 108 7 46 89 14 44 82 58 83 114 133 153 177 
192 211 225 230 255 255 222 255 246 182 230 208 108 172 137 50 129 84 
15 108 53 35 136 76 14 124 61 86 200 138 47 189 103 0 135 50 6 135 55 20 138 64 
12 119 51 33 126 69 81 163 115 134 204 168 184 244 219 205 255 245 201 249 249 
146 193 203 67 114 134 11 58 86 0 46 79 6 55 98 14 64 117 9 59 118 5 57 115 
4 56 114 3 55 113 1 53 111 0 54 111 0 55 112 3 59 116 3 59 116 1 60 116 
1 60 116 1 60 116 0 61 116 0 61 116 0 61 116 0 60 117 0 60 115 3 59 116 
3 60 115 4 59 115 5 60 117 4 60 119 1 61 123 0 60 123 0 56 119 3 64 121 
6 64 114 11 60 103 9 52 87 57 92 120 167 196 214 238 255 255 171 190 205 
60 85 126 14 46 107 13 55 127 7 57 128 4 63 123 0 59 108 3 62 106 3 62 106 
6 58 115 6 57 120 6 56 125 4 57 123 3 59 118 1 61 115 3 59 118 3 59 118 
3 59 118 3 59 118 3 59 116 3 59 116 3 59 116 3 59 116 3 60 115 3 60 115 
3 60 115 3 60 115 3 60 113 3 60 113 3 60 113 6 59 111 31 77 127 24 64 113 
7 46 89 12 48 84 67 101 128 151 184 201 206 241 245 218 255 249 210 255 237 
145 205 171 75 146 104 35 119 67 27 127 65 16 127 59 26 146 74 0 120 48 
70 196 125 49 196 107 0 137 49 0 135 46 14 144 58 12 133 53 22 134 58 
36 137 69 56 145 87 112 189 145 161 228 197 209 255 251 216 255 255 
178 220 232 114 150 174 46 79 112 0 34 76 0 41 93 0 47 106 6 58 116 13 65 123 
9 61 119 1 53 111 0 55 112 8 63 120 3 59 116 1 60 116 1 60 116 1 60 116 
0 61 116 0 61 116 0 61 116 0 62 116 0 60 117 0 61 115 1 60 116 3 60 115 
4 59 115 4 60 117 2 61 119 1 61 123 0 60 123 0 57 119 2 64 121 6 64 114 
11 60 103 9 52 87 57 92 120 167 196 214 238 255 255 171 190 205 60 85 126 
14 46 107 13 55 127 7 57 128 4 63 123 0 59 108 3 62 106 3 62 106 6 58 115 
6 57 120 6 56 125 4 57 123 3 59 118 1 61 115 3 59 118 3 59 118 3 59 118 
3 59 118 3 59 116 3 59 116 3 59 116 3 59 116 3 60 115 3 60 115 3 60 115 
3 60 115 3 60 113 3 60 113 3 60 113 8 58 111 7 40 94 16 44 94 42 71 113 
100 133 164 176 213 231 220 255 255 210 255 248 176 236 208 108 179 137 
61 144 90 29 123 61 29 134 65 40 156 83 20 145 67 19 150 70 0 120 41 60 191 115 
52 196 108 0 142 51 0 140 48 10 149 56 9 144 50 17 146 56 15 134 50 14 125 49 
54 150 87 93 175 127 147 214 183 198 250 238 226 255 255 208 235 255 
146 162 195 78 101 143 23 64 118 5 55 114 0 51 109 7 59 117 12 64 122 
10 62 120 8 63 120 13 68 125 3 59 116 1 60 116 1 60 116 0 61 116 0 61 116 
0 61 116 0 62 116 0 62 116 0 60 117 0 61 115 1 60 116 3 60 115 4 59 115 
4 60 117 2 61 119 0 62 123 0 61 123 0 57 119 2 64 121 4 64 114 9 60 103 
8 52 87 56 93 120 167 196 214 238 255 255 171 190 205 60 85 126 14 46 107 
13 55 127 7 57 128 4 63 123 0 59 108 3 62 106 3 62 106 6 58 115 6 57 120 
6 56 125 4 57 123 3 59 118 1 61 115 3 59 118 3 59 118 3 59 118 3 59 118 
3 59 116 3 59 116 3 59 116 3 59 116 3 60 115 3 60 115 3 60 115 3 60 115 
3 60 113 3 60 113 3 60 113 11 56 111 21 43 100 71 87 139 139 161 202 
198 230 255 222 255 255 197 253 242 142 211 182 94 177 131 23 119 58 17 124 54 
22 139 61 28 154 72 28 160 76 5 141 56 17 155 70 0 133 51 67 198 120 
37 179 93 0 141 53 6 149 59 8 151 59 0 137 43 4 142 47 9 142 51 14 140 56 
7 122 47 39 139 77 83 166 120 130 199 168 181 234 218 211 252 248 206 236 244 
181 212 233 94 129 171 44 84 135 4 45 97 1 44 95 14 60 112 15 65 118 7 58 113 
0 51 108 3 59 116 1 60 116 1 60 118 1 60 118 3 59 118 3 59 118 3 59 118 
1 60 118 0 60 117 0 61 115 1 61 115 3 60 115 4 59 115 5 60 117 2 61 119 
1 61 123 0 61 123 0 57 119 2 64 121 6 64 114 9 60 103 8 52 87 56 93 120 
167 195 216 239 255 255 172 189 205 62 84 123 15 46 101 15 55 124 8 57 126 
7 61 125 0 56 113 4 60 111 6 59 111 7 58 115 7 57 118 7 57 120 6 57 120 
4 59 115 3 60 113 4 59 115 3 59 116 3 59 118 1 60 118 0 61 118 0 60 120 
0 60 120 0 60 120 1 60 118 3 59 116 6 59 113 8 58 111 11 57 107 14 56 106 
15 55 104 21 54 99 107 130 171 162 185 216 213 244 255 217 255 255 181 238 229 
126 199 172 69 158 114 27 131 72 16 130 60 13 139 58 12 144 60 3 139 54 
1 139 54 0 132 46 14 153 70 0 132 50 65 196 118 60 197 115 0 134 49 3 143 57 
7 147 61 1 141 54 11 151 64 1 139 53 14 150 66 11 140 60 15 137 62 23 134 66 
45 146 86 93 183 129 148 230 182 181 255 213 196 254 232 208 237 253 
139 157 193 42 64 101 0 27 66 15 48 91 20 61 107 11 57 106 12 62 115 13 65 122 
3 57 117 3 57 119 13 64 129 15 64 130 9 56 124 8 53 121 11 61 124 6 62 119 
4 64 116 7 62 116 9 62 116 10 63 117 10 62 119 8 64 123 6 64 127 0 61 124 
0 57 120 3 63 123 7 62 116 10 59 102 8 51 86 56 91 119 167 194 215 241 254 255 
176 187 205 64 83 116 19 46 93 20 56 116 12 55 123 11 60 129 4 54 123 8 57 124 
9 57 121 11 57 117 12 57 116 11 58 114 9 59 110 8 60 108 8 60 108 9 62 112 
6 61 115 3 62 118 9 71 128 9 78 137 0 69 131 0 61 126 0 68 131 0 61 123 
0 47 107 1 46 101 26 59 110 28 49 94 13 25 67 64 68 106 150 162 188 
192 226 228 212 255 248 217 255 255 167 236 207 95 175 138 43 136 89 20 128 70 
12 131 63 11 139 65 9 144 67 1 140 59 7 146 65 3 141 63 3 141 63 13 149 73 
0 123 47 64 194 120 61 197 115 0 133 51 4 141 59 7 146 63 1 140 57 9 151 67 
0 140 56 10 152 68 5 142 60 14 147 66 19 144 66 13 131 55 15 127 53 53 159 87 
126 226 156 197 255 227 215 252 245 215 234 249 195 218 236 119 145 168 
20 51 80 5 41 77 31 70 113 20 64 111 20 67 121 11 60 118 3 51 115 0 47 113 
5 49 120 11 55 126 13 55 129 8 53 121 8 60 118 8 61 115 10 61 116 11 60 116 
13 60 116 12 61 119 11 61 124 8 62 126 5 60 127 0 57 121 8 63 127 11 62 119 
14 58 105 13 51 88 60 91 120 172 194 218 241 254 255 175 188 207 64 83 115 
18 47 89 20 56 114 12 55 123 11 59 133 4 53 130 8 56 130 9 56 126 11 57 119 
11 57 116 11 58 110 9 60 107 8 60 107 8 60 107 11 63 113 18 71 123 19 76 131 
2 63 120 0 55 116 6 72 133 11 76 140 0 53 116 9 65 126 23 72 128 18 56 105 
8 35 78 43 57 94 117 122 152 192 189 216 223 236 244 224 255 250 183 251 212 
126 201 158 69 155 106 30 127 73 13 121 61 15 134 66 21 151 77 5 141 65 
5 146 68 0 141 62 5 146 68 3 141 66 4 140 66 14 148 75 0 122 49 64 194 122 
63 196 115 0 133 51 4 141 59 7 146 63 1 140 57 9 151 67 0 141 56 10 152 68 
0 137 55 10 143 62 24 153 73 28 150 73 16 132 57 13 123 50 42 148 76 87 176 120 
185 245 219 218 255 254 209 251 249 180 221 225 140 180 192 58 94 118 
0 32 67 7 42 84 11 47 97 18 54 112 18 56 119 12 52 121 15 57 129 23 70 142 
20 68 142 10 59 128 7 55 117 11 56 115 13 55 115 14 54 115 16 54 116 15 55 117 
14 54 123 12 57 125 8 56 128 4 53 122 12 59 127 14 58 119 18 55 107 16 47 91 
63 87 123 172 191 221 238 255 255 169 190 211 59 86 116 12 49 91 14 59 116 
7 58 124 7 61 135 0 55 130 4 58 132 5 58 128 7 58 123 7 59 117 7 60 114 
7 60 110 5 61 110 5 61 110 15 71 122 0 41 95 0 48 105 22 72 131 18 68 127 
12 61 120 23 67 128 26 68 126 24 61 116 23 57 105 33 65 104 68 94 127 
122 148 171 189 212 228 225 247 255 218 253 247 156 217 186 101 178 132 
54 138 88 36 129 74 32 136 75 22 137 70 10 136 63 4 136 60 4 142 64 4 147 67 
0 141 61 5 146 68 3 141 66 4 140 66 14 148 77 0 121 51 64 194 122 63 196 115 
0 132 51 5 141 59 8 145 63 1 140 57 9 151 67 0 141 56 9 153 68 8 147 64 
0 136 54 1 132 52 14 141 62 25 146 69 24 140 65 19 131 57 22 124 59 79 162 116 
143 214 180 199 255 237 203 255 244 187 238 233 173 216 223 109 144 164 
17 46 80 2 29 74 19 46 99 28 58 118 20 55 119 8 48 117 3 50 120 6 56 127 
8 58 127 8 53 118 11 52 114 13 51 113 16 52 114 16 51 115 16 51 117 14 53 122 
11 53 125 8 55 127 4 51 123 12 57 125 15 56 120 17 52 106 16 44 92 63 85 126 
170 189 221 235 255 255 165 192 213 53 88 120 8 51 94 10 61 116 2 60 124 
3 63 135 0 57 130 1 59 133 2 59 130 4 59 124 5 59 119 5 60 117 4 61 114 
2 62 114 2 62 112 3 58 112 8 59 114 7 54 110 7 48 104 17 52 108 29 60 115 
28 53 107 19 42 92 15 38 80 11 35 71 79 107 131 186 219 234 227 255 255 
218 255 255 184 234 223 156 215 193 66 144 102 40 130 76 22 120 61 24 128 65 
29 142 76 26 147 76 15 146 70 7 144 64 2 144 62 4 147 67 0 141 61 5 146 67 
3 141 66 5 139 66 16 147 77 0 121 51 66 193 122 64 195 115 0 132 51 5 141 59 
8 145 63 1 140 57 9 151 67 0 141 56 9 153 68 10 154 69 10 149 66 3 140 58 
0 132 51 7 134 55 17 142 64 22 143 66 19 135 62 32 141 73 37 137 75 93 183 131 
173 251 211 213 255 251 211 255 250 189 226 232 164 192 213 92 115 147 
42 65 107 0 20 74 0 20 79 9 47 110 21 66 131 13 64 130 3 54 119 10 55 120 
14 55 117 15 55 116 16 54 116 17 55 118 17 55 120 15 55 124 12 56 127 
9 57 131 4 54 127 12 61 130 15 59 124 16 55 112 15 47 96 63 87 131 169 192 226 
231 255 255 162 192 216 50 89 122 5 52 96 7 62 118 0 61 126 0 64 135 0 58 130 
0 60 133 0 60 130 2 60 124 4 60 121 4 60 119 4 60 117 2 61 117 2 62 116 
0 46 100 29 76 130 29 68 123 19 50 104 32 54 104 25 39 86 11 20 63 22 30 66 
97 109 135 172 191 206 231 255 255 219 255 255 195 254 236 185 255 229 
118 197 165 13 101 59 32 131 76 31 137 73 25 136 68 14 131 60 10 134 61 
13 144 66 10 147 65 3 145 61 0 145 60 2 148 65 0 141 61 5 146 67 4 140 66 
5 139 66 17 147 77 0 120 51 66 193 122 64 195 115 0 132 51 7 140 59 8 145 63 
1 140 57 8 152 67 0 141 56 7 153 68 0 141 56 13 157 72 20 162 78 11 148 66 
4 140 58 10 141 61 14 143 63 10 139 57 0 128 43 28 149 69 18 130 58 35 133 74 
127 209 163 200 255 235 217 255 253 226 255 255 206 235 251 139 166 195 
61 89 128 20 53 98 9 46 98 7 50 103 8 55 111 11 62 119 12 61 120 14 60 119 
15 60 119 18 60 118 18 60 120 16 60 121 16 61 126 13 62 129 10 63 133 
4 58 128 12 65 133 14 64 127 18 61 116 15 53 102 61 92 136 171 197 234 
231 255 255 162 192 218 50 88 124 5 52 96 7 62 118 0 61 124 1 64 133 0 58 129 
0 60 130 1 60 128 4 59 123 5 59 121 7 59 119 5 60 117 4 60 117 5 60 116 
7 57 110 20 61 113 10 43 94 13 37 85 35 50 93 42 50 86 80 85 114 153 160 178 
234 247 255 223 248 244 220 255 243 197 255 228 128 206 167 57 150 103 
30 137 83 35 149 89 16 133 65 24 144 72 24 149 73 15 143 66 9 145 63 10 150 64 
1 145 58 0 133 45 0 146 58 1 149 63 0 142 59 5 146 67 4 140 64 7 139 66 
19 146 77 0 120 51 66 193 122 64 195 115 0 132 51 7 140 59 8 145 63 1 140 57 
8 152 67 0 141 56 7 153 68 0 143 58 0 146 61 3 147 62 2 146 61 3 145 61 
11 150 67 19 156 74 22 160 74 23 162 69 0 120 28 4 130 46 37 151 79 35 133 74 
68 151 105 151 218 187 206 255 244 212 255 255 219 255 255 201 238 255 
140 177 204 58 97 130 4 44 80 0 41 81 13 60 104 8 60 110 5 61 112 9 60 113 
10 60 111 10 60 111 10 61 114 9 61 118 6 62 121 5 65 128 0 61 124 6 68 129 
10 66 125 12 62 113 10 54 99 57 94 136 167 197 233 232 255 255 165 191 218 
54 86 124 9 50 94 11 60 116 4 60 121 5 62 129 0 57 125 4 59 126 7 58 123 
9 57 119 9 58 117 11 57 116 11 57 116 9 58 116 11 58 114 12 53 105 24 60 108 
25 54 98 23 47 85 65 82 110 146 161 180 220 235 242 241 255 255 234 255 247 
226 255 239 164 225 184 74 152 102 24 122 61 17 132 63 9 137 63 0 127 51 
15 148 69 14 147 66 8 146 61 4 144 58 2 146 58 2 151 61 2 152 62 0 150 59 
0 148 58 0 150 63 0 142 59 5 146 67 5 140 64 8 138 66 20 145 77 0 119 51 
66 193 122 64 195 115 0 132 51 7 140 59 8 145 63 1 140 57 9 151 67 0 141 56 
7 153 68 10 158 72 1 149 63 0 147 61 7 153 68 8 154 69 0 146 61 0 144 59 
7 150 62 0 144 49 7 146 53 8 140 54 10 136 55 13 127 57 13 114 54 46 135 87 
104 181 145 175 243 218 193 254 239 212 255 255 215 255 255 199 241 253 
151 189 208 72 110 131 2 46 75 3 56 96 0 57 100 3 56 100 3 56 98 5 56 99 
4 57 101 3 57 104 1 59 109 1 62 117 0 58 115 4 65 120 6 63 116 8 59 106 
7 50 92 55 90 128 164 193 225 237 254 255 171 188 216 60 84 120 15 48 91 
17 58 110 9 58 116 11 61 122 4 56 116 9 58 117 12 57 116 15 56 112 15 56 110 
16 56 108 15 56 108 15 56 110 16 56 108 0 28 74 0 25 64 66 96 130 160 190 214 
210 238 250 234 255 255 231 255 253 198 242 215 169 224 184 110 179 125 
41 125 63 20 122 49 33 150 72 23 152 69 3 143 56 8 152 65 7 151 64 3 147 59 
5 152 63 11 160 68 7 158 65 0 149 55 0 147 53 0 154 60 0 148 57 0 150 61 
0 142 57 5 147 65 5 140 64 8 138 66 20 145 77 0 119 51 67 193 122 64 195 115 
0 132 51 7 140 59 8 145 63 1 140 57 9 151 67 0 141 56 7 153 68 1 149 63 
0 150 63 0 150 63 0 150 63 0 150 63 0 150 63 1 149 63 4 148 61 8 148 61 
9 145 60 10 143 60 10 141 61 10 138 63 12 133 64 15 129 67 19 126 70 57 153 107 
101 185 149 154 227 198 195 255 238 220 255 255 223 255 255 199 235 235 
167 205 216 86 133 159 29 82 114 3 53 86 6 55 87 5 51 84 5 54 87 16 66 103 
19 72 112 4 58 104 6 62 111 17 71 118 18 66 114 17 59 101 12 46 84 58 84 119 
171 188 218 236 241 255 184 189 218 60 75 108 10 33 74 32 64 111 19 59 110 
6 47 99 12 55 106 1 41 92 7 45 92 14 48 93 19 52 95 22 55 98 23 57 102 
27 61 107 29 64 106 107 137 173 168 199 227 216 251 255 221 255 255 
214 255 253 204 255 236 165 231 195 115 191 142 34 123 59 29 129 56 24 137 55 
20 144 56 15 148 57 9 150 56 4 149 54 0 148 54 0 150 60 0 151 60 0 151 60 
0 152 58 0 153 58 0 153 56 0 153 56 0 152 58 0 149 58 1 151 62 0 143 58 
8 147 66 8 140 65 11 138 67 21 146 78 0 121 53 67 193 122 64 195 115 
0 132 51 5 141 59 8 145 63 2 139 57 9 151 67 0 141 56 7 153 68 1 149 63 
0 150 63 0 150 63 0 150 63 0 150 63 0 150 63 0 150 63 2 148 63 8 145 63 
11 144 65 9 144 65 9 146 66 8 146 68 8 146 68 11 145 72 14 144 74 9 129 65 
20 127 71 50 142 93 102 178 139 160 221 190 200 250 225 220 255 240 
218 255 250 217 255 255 195 243 255 153 200 218 94 139 158 45 88 107 25 67 89 
12 56 81 0 41 70 8 57 90 0 42 80 3 48 87 12 51 90 13 43 79 12 35 67 72 87 116 
194 201 227 250 251 255 186 186 210 60 69 98 8 27 60 24 52 91 18 53 93 
10 49 90 10 52 90 11 49 85 18 54 86 23 57 85 24 58 85 40 74 101 88 122 150 
156 191 223 209 244 255 227 255 255 227 255 255 215 255 255 187 243 232 
155 224 196 117 198 157 65 158 103 18 125 57 11 128 49 7 134 45 5 140 46 
5 145 48 5 149 51 6 152 53 5 153 55 4 154 57 0 151 60 0 152 60 0 153 60 
0 153 58 0 153 58 0 153 56 0 153 56 0 152 58 0 149 58 2 151 61 0 143 58 
8 147 66 8 140 64 9 139 65 21 147 76 0 122 51 66 193 122 63 196 115 0 132 51 
5 141 59 8 145 63 2 139 57 9 151 67 0 141 56 7 153 68 2 148 63 1 149 63 
0 150 63 0 150 63 0 150 63 0 150 63 0 150 63 1 149 65 6 141 65 10 140 66 
8 143 67 6 147 69 5 151 70 5 154 72 6 155 73 8 155 74 23 161 84 10 138 64 
6 117 51 20 113 56 49 125 78 92 154 113 152 204 166 200 245 222 193 239 236 
212 255 255 214 255 255 208 248 250 211 249 252 200 237 243 153 191 200 
106 145 160 128 166 187 92 129 155 75 111 137 59 89 115 46 66 91 50 61 83 
95 98 117 178 177 193 253 249 255 194 193 209 92 100 121 52 70 94 56 86 112 
60 97 123 74 119 142 82 127 148 111 154 170 136 178 190 172 212 220 
203 242 249 218 255 255 219 255 255 213 255 255 210 255 255 206 252 250 
198 250 238 169 230 212 106 181 150 26 115 71 0 81 22 0 105 34 16 149 66 
17 160 70 12 160 64 8 158 59 5 155 55 2 152 53 1 149 51 2 147 52 0 148 54 
0 150 61 0 151 63 0 151 63 0 152 61 0 152 60 0 152 58 0 152 58 0 152 58 
0 148 58 2 151 61 0 143 58 8 147 66 6 141 64 9 139 65 20 148 74 0 122 51 
66 193 122 63 196 115 0 133 51 5 141 59 8 145 63 2 139 57 11 150 67 0 140 56 
9 153 68 3 147 62 1 147 62 0 148 62 0 149 62 0 149 62 0 149 62 0 149 62 
0 148 64 4 140 64 7 139 66 4 142 67 2 145 66 0 148 66 0 151 65 0 153 66 
0 153 65 0 146 60 8 147 66 20 145 69 21 130 62 15 109 47 25 106 50 62 132 82 
98 163 123 130 189 167 170 227 212 204 255 241 219 255 249 220 255 249 
205 252 236 205 251 240 224 255 255 213 255 255 207 250 255 226 255 255 
229 255 255 235 255 255 245 255 255 241 246 252 247 248 253 246 247 252 
237 242 248 214 228 237 219 246 255 215 253 255 199 246 254 201 254 255 
193 249 248 211 255 255 201 255 242 194 247 231 200 253 235 212 255 249 
211 255 251 191 247 236 170 231 215 103 167 141 56 127 93 17 98 57 18 112 62 
33 141 81 32 156 84 18 155 75 5 154 64 0 154 60 0 153 56 0 151 51 0 147 48 
0 144 47 0 144 48 3 144 52 3 146 56 0 148 64 0 149 66 0 149 64 0 149 62 
0 150 60 0 150 59 0 149 59 0 149 59 0 148 58 3 150 62 0 142 56 8 147 64 
6 141 62 8 140 64 18 148 74 0 123 49 66 193 122 61 197 115 0 133 51 4 141 59 
8 145 63 2 139 57 11 150 67 0 139 56 10 152 68 4 146 62 3 147 62 1 147 62 
0 148 62 0 149 62 0 149 62 0 149 62 0 148 64 4 147 68 5 146 68 3 146 67 
0 146 65 0 146 62 0 146 59 0 147 56 0 145 55 0 133 45 0 142 58 13 146 67 
18 140 67 22 136 67 29 133 70 29 127 68 27 117 65 18 105 60 26 109 67 
47 124 82 98 171 128 151 222 180 168 236 195 173 241 204 195 255 231 
199 255 242 193 255 239 208 255 252 209 255 248 219 255 246 234 255 252 
231 251 239 234 250 237 243 255 247 232 252 243 215 244 239 221 255 255 
213 255 255 198 255 249 206 255 255 198 255 247 176 249 219 176 250 213 
177 249 209 172 245 202 154 226 186 117 194 152 75 153 114 43 126 84 48 136 85 
39 134 76 28 130 67 20 131 63 13 137 64 8 143 64 1 145 60 0 144 54 0 154 63 
0 153 60 0 149 57 0 145 54 0 142 53 0 142 54 4 142 56 5 145 59 3 146 67 
1 146 69 0 147 67 0 147 66 0 148 64 0 148 62 0 148 60 1 148 60 0 147 59 
5 149 62 0 142 56 8 147 64 6 141 62 8 141 62 17 149 73 0 123 49 66 193 122 
60 197 115 0 133 51 4 141 59 8 145 63 2 139 57 12 149 67 0 139 56 12 151 68 
6 145 62 4 146 62 3 147 62 1 147 62 0 148 62 0 149 62 0 149 62 0 149 62 
4 153 69 3 152 68 2 151 67 0 150 63 0 148 59 0 146 57 0 145 55 0 143 54 
10 154 67 9 151 67 3 140 60 0 131 55 10 140 68 26 151 83 22 145 80 8 127 63 
20 136 73 31 144 78 33 139 73 21 123 57 12 111 46 18 114 50 45 141 80 
79 172 119 87 178 134 91 179 139 124 205 172 143 216 186 153 214 183 
154 205 174 167 211 178 218 253 223 229 255 236 203 234 216 160 201 183 
153 206 186 143 208 186 118 194 166 105 189 155 83 172 128 86 176 124 
73 164 105 55 145 83 35 127 62 25 117 54 24 120 57 32 130 69 36 141 75 
25 135 62 21 138 59 9 130 50 0 125 42 3 136 53 19 159 73 17 163 78 3 153 66 
12 161 77 10 159 75 7 156 72 5 153 67 5 149 64 4 146 62 6 143 61 6 143 63 
6 144 69 4 144 71 3 145 69 3 146 67 3 146 66 3 146 64 3 147 62 3 147 60 
2 146 59 6 148 62 2 142 56 9 147 62 5 142 60 6 141 62 17 149 73 0 124 48 
64 194 120 59 198 115 0 134 51 4 141 59 8 145 63 2 139 57 12 149 67 1 138 56 
12 151 68 5 144 61 3 145 61 2 146 61 0 146 61 0 146 61 0 147 61 0 147 61 
0 148 61 0 153 62 0 154 62 0 153 62 0 151 60 1 150 58 4 149 58 6 146 57 
7 145 59 2 140 55 5 142 60 9 147 69 10 151 75 11 153 81 9 153 83 2 147 80 
0 142 71 0 136 54 0 137 49 0 142 54 6 145 54 14 148 59 22 152 66 14 143 61 
0 121 47 8 133 67 5 125 64 14 127 73 14 116 66 17 106 58 22 101 53 64 136 86 
162 221 175 225 255 237 174 219 190 85 140 111 47 114 83 38 120 84 25 117 76 
27 127 77 21 126 67 25 132 64 24 132 56 23 132 51 23 135 49 25 137 53 
21 137 54 15 134 54 8 132 48 3 136 43 17 152 57 20 158 63 12 149 57 10 149 60 
17 157 70 13 152 69 0 138 56 0 135 56 0 137 59 0 140 62 2 143 65 7 145 68 
9 147 70 11 148 70 11 147 71 6 141 72 6 141 74 5 142 72 5 142 70 3 144 66 
3 144 65 3 145 63 3 145 61 3 145 59 8 148 62 2 142 56 9 147 62 5 142 60 
5 142 60 15 150 71 0 124 48 64 194 120 60 197 115 0 133 51 4 141 59 8 145 63 
2 139 57 12 149 67 0 139 56 12 151 68 5 144 61 3 145 61 2 146 61 2 146 61 
2 146 61 0 146 61 0 146 61 0 148 61 0 147 56 0 149 56 0 149 57 0 148 58 
2 149 58 7 150 60 11 149 63 12 148 63 17 153 69 7 144 62 4 142 64 6 148 72 
1 147 72 0 140 68 0 141 69 0 151 74 0 152 64 0 145 51 0 152 55 1 152 55 
0 142 45 0 145 49 6 153 62 3 145 59 3 141 63 15 151 77 19 153 84 8 135 68 
14 130 67 28 129 69 70 154 95 162 229 178 204 255 222 163 217 185 76 142 106 
36 117 74 27 125 76 13 122 65 15 134 68 18 140 67 14 137 57 15 139 55 
17 139 52 18 141 51 17 142 51 12 141 51 7 140 51 3 140 48 1 145 48 9 155 56 
8 152 55 0 141 46 0 137 47 5 145 58 9 148 65 5 144 63 1 139 61 3 141 64 
6 144 69 9 147 72 10 148 71 9 147 70 7 145 67 6 142 66 6 142 70 6 141 72 
6 142 70 5 143 68 5 143 66 3 144 65 3 145 63 3 145 61 3 145 61 8 148 62 
2 142 56 9 147 62 5 142 60 5 142 60 15 150 71 0 124 48 66 194 120 61 197 115 
0 133 51 5 141 59 8 145 63 2 139 57 11 150 67 0 140 56 9 153 68 3 147 62 
3 147 62 3 147 62 2 146 61 2 146 61 3 145 61 2 144 60 1 145 60 0 147 61 
0 147 59 0 147 59 0 147 59 2 146 59 2 146 59 3 145 59 3 145 59 3 145 61 
3 145 61 3 145 63 2 145 63 0 146 65 0 146 65 0 146 66 0 147 65 0 148 63 
0 148 61 2 146 61 3 145 59 0 147 59 0 148 58 0 147 58 3 145 59 12 145 66 
8 140 64 4 147 68 0 144 67 7 143 69 17 130 66 69 146 94 170 225 185 
213 255 234 159 218 188 65 142 100 27 121 68 22 137 72 8 139 63 7 146 63 
3 145 59 6 144 59 9 142 59 12 141 61 12 141 61 10 142 59 7 143 58 5 145 58 
2 147 56 2 146 58 2 146 58 2 146 58 2 146 58 2 146 59 3 145 59 3 145 61 
3 145 61 3 145 63 3 145 63 3 145 63 3 145 63 3 145 63 3 145 63 3 145 63 
3 145 63 5 143 65 5 143 65 5 143 65 3 145 63 3 145 63 2 145 63 2 146 61 
2 146 61 1 145 60 5 147 63 1 140 57 8 145 63 4 141 59 5 141 59 16 149 68 
0 122 44 67 193 120 63 196 115 0 132 51 5 141 59 8 145 63 1 140 57 9 151 67 
0 141 56 7 153 68 1 147 62 1 147 62 3 147 62 2 146 61 3 145 61 3 145 61 
4 143 60 2 144 60 2 146 61 2 146 61 2 146 61 2 146 61 2 146 61 2 146 61 
2 146 61 2 146 61 2 146 61 2 146 61 2 146 61 2 146 61 2 146 61 2 146 61 
2 146 61 0 146 61 0 146 65 0 146 65 6 143 63 5 144 63 0 147 61 0 148 61 
0 147 59 3 145 59 13 144 64 8 141 60 1 148 67 0 147 64 0 147 69 13 132 64 
72 144 96 173 223 186 213 255 238 156 219 190 62 143 100 23 124 66 16 140 67 
3 143 57 1 150 60 0 148 58 2 146 59 5 144 63 9 141 65 9 141 65 7 142 65 
5 144 61 0 147 59 0 148 58 0 146 61 2 146 61 2 146 61 2 146 61 2 146 61 
2 146 61 2 146 61 2 146 61 2 146 61 2 146 61 2 146 61 2 146 61 2 146 61 
2 146 61 2 146 61 2 146 61 3 145 61 3 145 61 3 145 61 2 146 61 2 146 61 
0 146 61 0 146 61 0 146 61 1 145 60 4 148 63 0 141 57 7 146 63 4 141 59 
5 141 59 16 149 68 0 122 44 67 193 120 63 196 115 0 132 51 5 141 59 8 145 63 
1 140 57 9 151 67 0 141 56 7 153 68 1 147 62 0 148 62 1 147 62 0 146 61 
2 146 61 2 146 61 2 144 60 2 144 60 2 146 61 0 146 61 0 146 61 0 146 61 
0 146 61 0 146 61 0 146 61 0 146 61 0 146 61 0 146 61 0 146 61 0 146 61 
0 146 61 0 146 61 0 146 61 0 147 61 0 147 65 0 146 65 5 144 63 5 144 63 
0 147 61 0 148 61 0 147 59 3 145 59 13 144 64 6 142 60 0 149 67 0 147 64 
0 147 69 12 133 64 71 145 96 172 224 186 211 255 238 156 219 190 62 143 100 
21 125 66 15 141 67 1 143 57 0 150 60 0 149 58 0 147 59 3 145 63 7 142 65 
9 141 65 7 142 65 5 144 61 0 147 59 0 148 58 0 146 61 0 146 61 0 146 61 
0 146 61 0 146 61 0 146 61 0 146 61 0 146 61 0 146 61 0 146 61 0 146 61 
0 146 61 0 146 61 0 146 61 0 146 61 2 146 61 3 145 61 3 145 61 3 145 61 
2 146 61 2 146 61 0 146 61 0 146 61 0 147 61 0 145 60 4 148 63 0 141 57 
7 146 63 4 141 59 5 141 59 16 149 68 0 122 44 66 194 120 63 196 115 0 133 51 
4 141 59 7 146 63 0 141 57 8 152 67 0 141 56 6 154 68 0 148 62 0 148 62 
1 147 62 0 146 61 2 146 61 2 146 61 2 144 60 1 145 60 0 146 61 0 146 61 
0 146 61 0 146 61 0 146 61 0 146 61 0 146 61 0 146 61 0 146 61 0 146 61 
0 146 61 0 146 61 0 146 61 0 146 61 0 146 61 0 147 63 0 147 65 0 146 65 
5 144 63 3 145 63 0 148 61 0 149 61 0 148 59 2 146 59 12 145 64 6 142 60 
0 149 67 0 148 64 0 147 69 12 133 64 71 145 96 172 224 186 211 255 238 
155 220 190 61 144 100 20 125 66 15 141 67 1 143 57 0 150 60 0 149 58 0 147 59 
3 145 63 7 142 65 7 142 65 6 143 65 3 145 61 0 147 59 0 148 59 0 147 61 
0 146 61 0 146 61 0 146 61 0 146 61 0 146 61 0 146 61 0 146 61 0 146 61 
0 146 61 0 146 61 0 146 61 0 146 61 0 146 61 0 146 61 0 146 61 2 146 61 
2 146 61 2 146 61 0 146 61 0 146 61 0 147 61 0 147 61 0 147 61 0 145 60 
2 148 63 0 142 57 5 147 63 3 142 59 4 141 59 14 150 68 0 123 44 66 194 120 
61 196 117 0 133 53 4 141 61 7 146 65 0 141 59 6 152 69 0 141 58 6 154 70 
0 148 64 0 148 64 0 148 64 0 147 63 0 146 63 0 146 63 1 144 62 1 144 62 
0 146 63 0 147 63 0 147 63 0 147 63 0 147 63 0 147 63 0 147 63 0 147 63 
0 147 63 0 147 63 0 147 63 0 147 63 0 147 63 0 147 63 0 147 63 0 147 63 
0 148 65 0 147 65 3 145 63 2 145 63 0 148 61 0 149 61 0 149 59 0 147 59 
12 145 64 5 142 60 0 150 67 0 148 64 0 148 69 10 134 64 69 145 96 170 225 186 
210 255 238 155 220 190 59 145 100 18 126 66 14 142 67 0 144 57 0 151 60 
0 150 58 0 147 59 2 145 63 6 143 65 7 142 65 5 143 65 2 146 61 0 147 59 
0 148 59 0 147 61 0 147 63 0 147 63 0 147 63 0 147 63 0 147 63 0 147 63 
0 147 63 0 147 63 0 147 63 0 147 63 0 147 63 0 147 63 0 147 63 0 147 63 
0 146 63 2 145 63 2 145 63 2 145 63 0 146 63 0 146 63 0 147 63 0 147 63 
0 147 63 0 146 62 2 148 65 0 142 59 4 147 65 3 142 61 4 141 61 13 150 70 
0 123 46 64 194 120 60 197 117 0 133 53 3 142 61 5 147 65 0 141 59 6 152 69 
0 142 58 5 154 70 0 148 64 0 148 64 0 148 64 0 147 63 0 146 63 0 146 63 
1 144 62 0 145 62 0 147 63 0 147 63 0 147 63 0 147 63 0 147 63 0 147 63 
0 147 63 0 147 63 0 147 63 0 147 63 0 147 63 0 147 63 0 147 63 0 147 63 
0 147 63 0 147 63 0 148 65 0 147 65 2 145 63 2 145 63 0 148 61 0 150 61 
0 150 59 0 147 59 10 146 64 5 142 60 0 150 67 0 149 64 0 148 69 9 135 64 
69 145 96 170 225 186 210 255 238 154 221 190 58 145 100 18 126 66 12 143 67 
0 145 57 0 151 60 0 150 58 0 147 59 2 145 63 6 143 65 6 143 65 5 143 65 
2 146 61 0 148 59 0 149 59 0 148 61 0 147 63 0 147 63 0 147 63 0 147 63 
0 147 63 0 147 63 0 147 63 0 147 63 0 147 63 0 147 63 0 147 63 0 147 63 
0 147 63 0 147 63 0 147 63 0 146 63 0 146 63 0 146 63 0 147 63 0 147 63 
0 147 63 0 147 63 0 147 63 0 146 62 1 149 65 0 142 59 4 147 65 1 143 61 
3 142 61 13 150 70 0 123 46 64 194 120 60 197 117 0 133 53 3 142 61 5 147 65 
0 141 59 6 152 69 0 142 58 5 154 70 0 148 64 0 149 64 0 148 64 0 147 63 
0 147 63 0 147 63 0 145 62 0 145 62 0 147 63 0 147 63 0 147 63 0 147 63 
0 147 63 0 147 63 0 147 63 0 147 63 0 147 63 0 147 63 0 147 63 0 147 63 
0 147 63 0 147 63 0 147 63 0 147 63 0 148 65 0 148 65 2 145 63 2 145 63 
0 149 61 0 150 61 0 150 59 0 147 59 10 146 64 4 143 60 0 150 67 0 149 64 
0 148 69 9 135 64 68 146 96 169 225 186 209 255 238 154 221 190 58 145 100 
18 126 66 12 143 67 0 145 57 0 152 60 0 151 58 0 148 59 0 146 63 5 143 65 
6 143 65 5 143 65 2 146 61 0 148 59 0 149 59 0 148 61 0 147 63 0 147 63 
0 147 63 0 147 63 0 147 63 0 147 63 0 147 63 0 147 63 0 147 63 0 147 63 
0 147 63 0 147 63 0 147 63 0 147 63 0 147 63 0 146 63 0 146 63 0 146 63 
0 147 63 0 147 63 0 147 63 0 147 63 0 148 63 0 146 62 1 149 65 0 142 59 
4 147 65 1 143 61 3 142 61 13 150 70 0 123 46 63 195 120 60 197 117 0 133 53 
3 142 61 5 147 65 0 141 59 6 152 69 0 142 58 5 154 70 0 148 64 0 149 64 
0 148 64 0 147 63 0 147 63 0 147 63 0 145 62 0 145 62 0 147 63 0 147 63 
0 147 63 0 147 63 0 147 63 0 147 63 0 147 63 0 147 63 0 147 63 0 147 63 
0 147 63 0 147 63 0 147 63 0 147 63 0 147 63 0 147 63 0 148 65 0 148 65 
2 145 63 2 145 63 0 149 61 0 150 61 0 149 59 0 147 59 10 146 64 4 143 60 
0 150 67 0 149 64 0 148 69 9 135 64 68 146 96 169 225 186 209 255 238 
154 221 190 58 145 100 18 126 66 12 143 67 0 145 57 0 152 60 0 151 58 0 148 59 
0 146 63 5 143 65 6 143 65 5 143 65 2 146 61 0 148 59 0 149 59 0 148 61 
0 147 63 0 147 63 0 147 63 0 147 63 0 147 63 0 147 63 0 147 63 0 147 63 
0 147 63 0 147 63 0 147 63 0 147 63 0 147 63 0 147 63 0 147 63 0 146 63 
0 146 63 0 146 63 0 147 63 0 147 63 0 147 63 0 147 63 0 148 63 0 146 62 
1 149 65 0 142 59 4 147 65 1 143 61 3 142 61 13 150 70 0 123 46 63 195 120 
55 192 114 0 129 51 2 140 62 6 147 68 0 143 63 6 152 71 0 140 59 2 151 69 
0 149 67 0 148 66 0 147 66 0 147 66 0 146 65 0 146 65 2 145 65 0 145 64 
0 145 64 0 145 64 0 145 64 0 145 64 0 145 64 0 145 64 0 145 64 0 145 64 
0 145 64 0 145 64 0 145 64 0 145 64 0 145 64 0 145 64 0 145 64 0 146 64 
0 145 62 0 144 62 0 142 60 0 142 60 0 145 58 0 147 58 0 146 56 0 144 56 
0 135 53 2 139 57 0 152 69 0 149 64 0 151 72 19 145 74 79 155 106 172 227 188 
210 255 238 154 221 190 58 145 100 18 126 66 12 143 67 0 146 58 0 152 61 
0 151 59 0 146 58 1 144 62 5 142 64 5 142 64 4 142 64 1 145 60 0 147 58 
0 148 58 0 146 62 0 145 64 0 145 64 0 145 64 0 145 64 0 145 64 0 145 64 
0 145 64 0 145 64 0 145 64 0 145 64 0 145 64 0 145 64 0 145 64 0 145 64 
0 145 64 0 145 64 0 145 64 0 145 64 0 145 64 0 145 64 0 146 64 0 146 64 
0 146 64 0 143 62 0 146 65 0 140 59 2 145 65 0 140 61 1 139 61 11 148 70 
0 121 44 65 195 121 57 192 115 0 131 53 5 142 64 10 148 70 2 143 64 10 153 73 
0 142 61 4 151 70 1 148 67 1 148 67 1 148 67 2 148 67 1 147 66 3 146 66 
3 146 66 2 145 65 0 146 65 0 146 65 0 146 65 0 146 65 0 146 65 0 146 65 
0 146 65 0 146 65 0 146 65 0 146 65 0 146 65 0 146 65 0 146 65 0 146 65 
0 146 65 0 146 65 0 152 69 2 151 69 7 149 67 6 149 67 2 152 65 0 153 65 
2 152 63 6 150 63 11 144 63 12 148 66 5 157 74 0 148 64 0 145 66 9 133 63 
64 140 91 158 210 172 211 255 239 155 220 190 58 144 99 15 123 63 10 138 63 
0 139 52 0 145 54 0 142 51 0 147 59 3 145 63 6 143 65 7 142 65 5 143 65 
2 146 61 0 147 59 0 148 59 0 147 63 0 146 65 0 146 65 0 146 65 0 146 65 
0 146 65 0 146 65 0 146 65 0 146 65 0 146 65 0 146 65 0 146 65 0 146 65 
0 146 65 0 146 65 0 146 65 2 145 65 2 145 65 2 145 65 0 146 65 0 146 65 
0 146 65 0 146 65 0 146 65 3 150 69 7 153 72 4 147 67 11 152 73 8 146 68 
10 147 69 18 155 77 0 129 53 65 192 121 56 188 113 0 127 51 3 138 62 8 144 68 
0 140 62 7 150 71 0 137 58 2 147 68 0 145 66 0 145 66 0 145 66 0 145 66 
1 144 65 2 143 65 2 143 65 1 142 64 0 143 64 0 143 64 0 143 64 0 143 64 
0 143 64 0 143 64 0 143 64 0 143 64 0 143 64 0 143 64 0 143 64 0 143 64 
0 143 64 0 143 64 0 143 64 0 143 64 0 144 62 0 143 62 2 141 60 0 142 60 
0 144 58 0 145 58 0 145 56 0 143 56 15 146 66 17 150 69 10 159 77 0 153 69 
2 150 72 18 139 70 73 147 98 166 216 179 209 255 236 154 217 188 60 143 99 
20 125 66 16 142 68 3 145 59 3 153 63 1 151 61 0 145 57 3 142 61 5 140 63 
7 139 63 4 141 63 1 143 59 0 145 57 0 145 57 0 144 63 0 143 64 0 143 64 
0 143 64 0 143 64 0 143 64 0 143 64 0 143 64 0 143 64 0 143 64 0 143 64 
0 143 64 0 143 64 0 143 64 0 143 64 0 143 64 1 142 64 1 142 64 1 142 64 
0 143 64 0 143 64 0 143 64 0 143 64 0 143 64 0 141 62 1 144 65 0 139 60 
3 144 66 1 137 61 3 138 62 11 146 70 0 120 45 68 194 123 65 195 121 2 134 59 
13 145 70 17 152 76 9 147 70 16 157 79 3 144 66 12 155 76 6 149 70 6 149 70 
6 149 70 5 148 69 6 147 69 8 146 69 7 145 68 7 145 68 5 146 68 4 147 68 
5 146 68 4 147 68 5 146 68 4 147 68 5 146 68 4 147 68 5 146 68 4 147 68 
5 146 68 4 147 68 5 146 68 4 147 68 5 146 68 4 147 68 1 148 67 2 148 67 
8 145 65 8 145 65 2 148 63 0 150 63 1 149 61 5 147 61 4 133 53 6 137 57 
1 148 67 0 143 60 0 144 66 15 134 66 72 144 96 167 214 178 216 255 241 
161 221 193 63 144 101 23 124 66 15 139 66 1 141 55 0 147 57 0 145 55 4 148 61 
8 145 65 11 143 67 12 143 67 9 144 67 7 146 63 4 148 61 2 149 61 4 147 67 
4 147 68 5 146 68 4 147 68 5 146 68 4 147 68 5 146 68 4 147 68 5 146 68 
4 147 68 5 146 68 4 147 68 5 146 68 4 147 68 5 146 68 5 146 68 7 145 68 
7 145 68 7 145 68 5 146 68 4 147 68 4 147 68 4 147 68 4 147 68 4 147 68 
8 149 71 2 143 65 10 148 71 8 143 67 10 142 67 19 151 76 0 124 50 72 196 126 
57 185 111 0 123 49 4 134 60 9 141 66 1 136 60 9 145 69 0 134 57 3 144 66 
4 145 67 4 145 67 4 145 67 5 143 66 5 143 66 5 141 65 5 141 65 5 141 65 
4 142 65 2 143 65 4 142 65 2 143 65 4 142 65 2 143 65 4 142 65 2 143 65 
4 142 65 2 143 65 4 142 65 2 143 65 4 142 65 2 143 65 4 142 65 2 143 65 
0 145 64 1 144 64 6 141 62 6 141 62 1 145 60 0 146 60 1 145 58 5 143 58 
14 141 62 16 145 65 9 155 74 0 148 66 2 147 70 20 137 69 76 145 98 170 216 180 
214 255 238 159 218 190 64 142 100 25 124 67 20 142 69 7 145 60 5 152 63 
3 150 61 2 144 58 6 141 62 9 140 64 11 139 64 9 140 64 6 142 60 2 144 58 
1 145 58 2 143 64 2 143 65 4 142 65 2 143 65 4 142 65 2 143 65 4 142 65 
2 143 65 4 142 65 2 143 65 4 142 65 2 143 65 4 142 65 2 143 65 4 142 65 
4 142 65 5 141 65 5 141 65 5 141 65 4 142 65 4 142 65 2 143 65 2 143 65 
2 143 65 2 143 65 7 145 68 2 138 62 9 144 68 6 138 63 8 138 64 16 146 72 
0 121 47 66 187 118 63 189 116 0 128 54 11 139 65 15 145 71 9 141 66 15 150 74 
2 138 62 10 148 71 11 149 72 10 148 71 10 148 71 11 147 71 10 146 70 11 146 70 
11 146 70 10 145 69 9 145 69 8 146 69 9 145 69 8 146 69 9 145 69 8 146 69 
9 145 69 8 146 69 9 145 69 8 146 69 9 145 69 8 146 69 9 145 69 8 146 69 
9 145 69 8 146 69 4 147 67 5 146 67 11 144 65 11 144 65 5 147 63 2 148 63 
5 147 61 9 145 61 4 129 51 6 135 55 3 146 66 0 141 60 1 143 67 19 134 67 
77 145 98 172 216 181 213 255 235 157 213 186 61 138 96 21 119 62 15 135 63 
2 138 54 0 144 56 0 142 54 8 148 62 10 145 66 15 143 68 16 142 68 15 143 68 
12 145 64 8 148 62 6 148 62 8 146 68 8 146 69 9 145 69 8 146 69 9 145 69 
8 146 69 9 145 69 8 146 69 9 145 69 8 146 69 9 145 69 8 146 69 9 145 69 
8 146 69 9 145 69 9 145 69 10 145 69 10 145 69 10 145 69 9 145 69 9 145 69 
8 146 69 8 146 69 8 146 69 6 144 67 11 147 71 6 141 65 14 146 71 10 140 66 
13 141 67 21 149 75 0 123 50 77 196 128 53 177 105 0 116 43 0 128 54 4 134 60 
0 129 54 4 139 63 0 127 51 0 136 60 0 126 50 0 126 50 0 125 49 0 125 49 
0 124 48 0 123 48 0 123 48 0 124 48 0 124 48 0 124 48 0 124 48 0 124 48 
0 124 48 0 124 48 0 124 48 0 124 48 0 124 48 0 124 48 0 124 48 0 124 48 
0 124 48 0 124 48 0 124 48 0 124 48 0 130 51 0 129 51 0 127 49 0 127 49 
0 130 47 0 132 47 0 131 45 0 129 45 0 124 46 2 129 50 0 141 62 0 138 57 
0 140 64 19 132 66 77 143 97 173 214 180 224 255 245 168 222 196 69 144 103 
27 122 66 18 135 64 1 134 51 0 140 52 0 136 48 0 126 41 0 124 45 0 121 47 
0 121 47 0 122 47 0 124 43 0 126 41 0 127 41 0 125 47 0 124 48 0 124 48 
0 124 48 0 124 48 0 124 48 0 124 48 0 124 48 0 124 48 0 124 48 0 124 48 
0 124 48 0 124 48 0 124 48 0 124 48 0 124 48 0 124 48 0 123 48 0 123 48 
0 124 48 0 124 48 0 124 48 0 124 48 0 124 48 0 128 52 0 131 55 0 125 49 
0 130 55 0 124 50 0 125 51 6 132 59 0 106 34 56 173 105 112 236 164 
49 175 102 60 186 113 63 193 119 57 187 113 63 198 122 51 186 110 59 195 119 
61 197 121 61 197 121 61 197 121 61 197 121 63 195 120 63 195 120 63 195 120 
62 194 119 60 195 119 60 195 119 60 195 119 60 195 119 60 195 119 60 195 119 
60 195 119 60 195 119 60 195 119 60 195 119 60 195 119 60 195 119 60 195 119 
60 195 119 60 195 119 59 195 119 56 194 116 57 194 116 61 192 114 61 192 114 
56 195 112 53 197 112 56 196 110 58 194 110 64 186 109 64 191 112 57 198 119 
43 190 109 48 186 111 61 174 108 117 180 135 209 250 216 225 255 245 
172 226 200 85 157 117 53 148 92 57 174 103 52 185 102 59 199 112 58 201 113 
59 197 112 62 195 116 66 192 118 66 192 118 66 192 118 63 194 114 59 197 112 
58 198 112 60 195 118 60 195 119 60 195 119 60 195 119 60 195 119 60 195 119 
60 195 119 60 195 119 60 195 119 60 195 119 60 195 119 60 195 119 60 195 119 
60 195 119 60 195 119 60 195 119 62 194 119 62 194 119 62 194 119 60 195 119 
60 195 119 59 195 119 59 195 119 59 195 119 57 193 117 60 196 120 57 189 114 
63 195 120 62 190 116 62 190 116 73 197 125 49 170 99 111 228 160 
